<svg id="Шар_1" data-name="Шар 1" xmlns="http://www.w3.org/2000/svg" viewBox="0 0 729.58 152.39">
    <defs>
        <style>.cls-1{fill:#fff;}</style>
    </defs>
    <title>create_white</title>
    <path class="cls-1"
          d="M230.07,316.8a74.7,74.7,0,0,1-44.34,14.27c-39.12,0-70.83-29-70.83-64.78s31.71-64.78,70.83-64.78A74.85,74.85,0,0,1,228.93,215l-20.86,30.41A28.94,28.94,0,0,0,187,236.24c-16.22,0-29.37,13.45-29.37,30.05s13.15,30,29.37,30a29,29,0,0,0,21-9Z"
          transform="translate(-114.9 -178.67)"/>
    <path class="cls-1"
          d="M309.44,204.43a53.17,53.17,0,0,0-18.74,8.75v-7H240.17v120.2H290.7V263.24c2.87-6.23,7.14-12.12,13.66-14.52,9.24-3.39,23.14-.4,23.14-.4l3.4-44.67S318.26,202.28,309.44,204.43Z"
          transform="translate(-114.9 -178.67)"/>
    <path class="cls-1"
          d="M468.94,264.63a64.59,64.59,0,0,0-62-64.62,75.31,75.31,0,0,0-28.58,5.44c-23.73,9.71-39.4,31.57-38.7,58.64,0,41.85,30,65.22,64.61,65.22q1.33,0,2.67-.06c1,0,1.92.06,2.89.06,22.63,0,42.75-9.85,54.35-25.84L457,299.54l-29.17-16c-5.23,7.35-13.27,12.05-22.28,12.05-10.79,0-20.17-6.74-25-16.69h86.81A64.27,64.27,0,0,0,468.94,264.63Zm-90.09-13.27c4.23-11.76,14.47-20.05,26.44-20.05s21.51,7.61,24.44,20.05Z"
          transform="translate(-114.9 -178.67)"/>
    <path class="cls-1"
          d="M552.59,326l46.61-.19-.31-25-.72-53a45.6,45.6,0,0,0-30.34-43,88.56,88.56,0,0,0-11-2.41,90.47,90.47,0,0,0-13.9-1.06c-23.32,0-44.12,8.73-57.69,22.38l21.84,21.22,4.34,4.22c3.54-4.49,10.63-8,18.62-9.44,16.14-3,20.64,4.08,21.33,10.92-5.23-.71-10.5-.67-20.67,0-8.39.56-20.49,3.34-27.19,6.67l-.31.14c-13.5,6-22.86,19-22.86,34.2,0,.67,0,1.34,0,2,1.09,19.87,18.28,35.67,39.33,35.67,4.68.47,12-.93,21.12-3.9a52.84,52.84,0,0,0,11.74-5.55V326Zm-15.44-23.41c-9.62,0-17.42-6.07-17.42-13.56a11.36,11.36,0,0,1,2.62-7.15c3.07-3.85,8.55-6.41,14.8-6.41,9.63,0,17.43,6.07,17.43,13.56a10.87,10.87,0,0,1-.9,4.31C551.37,298.71,544.84,302.58,537.15,302.58Z"
          transform="translate(-114.9 -178.67)"/>
    <path class="cls-1"
          d="M625.92,206c1.37-1.17,29.08-27.32,29.08-27.32h22.83V206h25.36v37.27H678.91a.86.86,0,0,0-.88.93c.46,5.93-1.92,38.32,1.94,42,9.08,8.63,23.22,2.83,23.22,2.83v36.24c-9.52,3.14-19.26,3.63-36.53,3.52-22.39-.89-40.74-17.55-40.74-40V243.06h-16V205.8Z"
          transform="translate(-114.9 -178.67)"/>
    <path class="cls-1"
          d="M844.48,264.63a64.59,64.59,0,0,0-62-64.62,75.31,75.31,0,0,0-28.58,5.44c-23.74,9.71-39.4,31.57-38.7,58.64,0,41.85,30,65.22,64.61,65.22q1.34,0,2.67-.06c1,0,1.92.06,2.89.06,22.63,0,42.75-9.85,54.35-25.84l-7.15-3.93-29.17-16c-5.23,7.35-13.27,12.05-22.28,12.05-10.79,0-20.17-6.74-25-16.69H842.9A64.27,64.27,0,0,0,844.48,264.63Zm-90.1-13.27c4.23-11.76,14.48-20.05,26.45-20.05s21.51,7.61,24.44,20.05Z"
          transform="translate(-114.9 -178.67)"/>
</svg>