<?xml version="1.0" encoding="utf-8"?>
<!-- Generator: Adobe Illustrator 22.1.0, SVG Export Plug-In . SVG Version: 6.00 Build 0)  -->
<svg version="1.1" id="Шар_1" xmlns="http://www.w3.org/2000/svg" xmlns:xlink="http://www.w3.org/1999/xlink" x="0px" y="0px"
	 viewBox="0 0 1920 1080" style="enable-background:new 0 0 1920 1080;" xml:space="preserve">
<style type="text/css">
	.st0{fill:#FFFFFF;}
</style>
<g>
	<path class="st0" d="M380.1,518.8c0-27.7,8.1-52,24.4-72.8c16.3-20.8,38.4-31.2,66.4-31.2c25,0,43.8,8.5,56.4,25.4h1.1V420h82.1
		v178.6c0,20.9-3.5,38.9-10.4,53.9c-6.9,15-16.5,26.5-28.8,34.6c-12.2,8.1-25.3,13.9-39.2,17.4c-13.9,3.5-29.1,5.3-45.8,5.3
		c-42.1,0-77.6-9.7-106.3-29.1l38.2-57.9c18.2,14.1,38.3,21.2,60.5,21.2c13.4,0,24.5-3.3,33.5-10c9-6.7,13.4-15.8,13.4-27.4v-8.7
		h-1.1c-5,6.1-12.4,11.1-22.1,15.1c-9.7,4-20.2,6.1-31.6,6.1c-29.3,0-51.7-9.6-67.4-28.8C387.9,571.1,380.1,547.3,380.1,518.8
		 M461,518.8c0,9.8,2.9,17.9,8.7,24.2c5.8,6.3,13.7,9.5,23.8,9.5c10.1,0,18.3-3.2,24.6-9.7c6.3-6.4,9.5-14.4,9.5-24
		c0-9.1-3.2-16.8-9.6-23.3c-6.4-6.4-14.6-9.6-24.4-9.6c-10.1,0-18,3.2-23.8,9.6C463.9,501.9,461,509.7,461,518.8"/>
	<path class="st0" d="M649.5,619.1V420h84v22.7h0.8c4.5-8.3,11.1-15.1,19.7-20.2c8.6-5.2,18.3-7.8,29.1-7.8c6.8,0,12.4,0.6,16.7,1.9
		l-6.8,74.2c-5.3-1.5-11.5-2.3-18.5-2.3c-11.1,0-20.1,3.3-27.1,9.8c-6.9,6.6-10.4,14.6-10.4,24.2v96.5H649.5z"/>
	<path class="st0" d="M916.7,493.4v-0.8c0-11.9-7.6-17.8-22.7-17.8c-14.4,0-28.4,5.7-42,17l-43.5-43.1c11.9-11.4,26.2-20.2,43-26.7
		c16.8-6.4,34-9.7,51.7-9.7c18.2,0,33.7,2.6,46.5,7.8c12.9,5.2,22.8,12.6,29.7,22.3c6.9,9.7,11.9,20.4,14.9,32
		c3,11.6,4.5,24.9,4.5,39.7v104.8h-79.1v-15.9h-0.8c-4.5,7.1-11.4,12.4-20.6,15.9c-9.2,3.5-18.6,5.3-28.2,5.3
		c-18.2,0-34.2-5.2-48.2-15.7c-14-10.5-21-26.5-21-48.2c0-13.1,3.4-24.3,10.2-33.7c6.8-9.3,16.2-16.3,28.2-20.8
		c12-4.5,24.2-7.8,36.7-9.7C888.5,494.4,902,493.4,916.7,493.4 M922.3,536.6h-4.9c-28.5,0-42.8,6.6-42.8,19.7c0,5,2.1,8.9,6.4,11.5
		c4.3,2.6,8.8,4,13.6,4c8.3,0,15-2.6,20.1-7.9c5-5.3,7.6-12.1,7.6-20.4V536.6z"/>
	<path class="st0" d="M1175.9,392.8c-5.6-2.3-11.2-3.4-17-3.4c-15.4,0-23.1,9.3-23.1,28v2.6h42v62.4h-42v136.6h-87V482.5h-34.1V420
		h34.1v-4.5c0-62.6,31-93.8,93.1-93.8c16.9,0,30.1,1.9,39.7,5.7L1175.9,392.8z"/>
	<path class="st0" d="M1414.3,518.8c0,33.1-11.1,59.3-33.3,78.7c-22.2,19.4-49.1,29.1-80.6,29.1c-31.5,0-58.3-9.7-80.2-29.1
		c-21.9-19.4-32.9-45.7-32.9-78.7c0-32.8,11-58.7,32.9-77.8c21.9-19,48.7-28.6,80.2-28.6c31.5,0,58.4,9.5,80.6,28.6
		C1403.2,460.1,1414.3,486,1414.3,518.8 M1323.9,495.7c-6.3-6.6-14.1-9.8-23.5-9.8c-9.3,0-17,3.3-23.1,9.8
		c-6.1,6.6-9.1,14.3-9.1,23.1c0,9.3,3.1,17.3,9.3,23.8c6.2,6.6,13.9,9.8,23.3,9.8c9.3,0,17.1-3.3,23.3-9.8
		c6.2-6.6,9.3-14.5,9.3-23.8C1333.3,510,1330.2,502.3,1323.9,495.7"/>
	<path class="st0" d="M1440,576.3c0-13.4,5-24.9,14.9-34.6c10-9.7,21.9-14.6,35.8-14.6c13.4,0,24.9,4.9,34.6,14.6
		c9.7,9.7,14.6,21.3,14.6,34.6c0,13.6-4.9,25.2-14.6,34.6c-9.7,9.5-21.3,14.2-34.6,14.2c-13.9,0-25.8-4.7-35.8-14.2
		C1445,601.5,1440,589.9,1440,576.3"/>
</g>
</svg>
