<svg id="Шар_1" data-name="Шар 1" xmlns="http://www.w3.org/2000/svg" viewBox="0 0 1159.88 388.27"><title>graf_black</title><path d="M389.12,518.42q0-41.62,24.41-72.84t66.41-31.22q37.47,0,56.39,25.35h1.14V419.65h82.11V598.27q0,31.41-10.4,53.93t-28.76,34.62a128,128,0,0,1-39.17,17.41,185.61,185.61,0,0,1-45.79,5.3q-63.21,0-106.34-29.14l38.22-57.9q27.26,21.19,60.55,21.19,20.06,0,33.49-10t13.44-27.44v-8.71h-1.14q-7.57,9.09-22.14,15.14a81.43,81.43,0,0,1-31.6,6.06q-43.9,0-67.36-28.76t-23.46-71.53m81,0q0,14.76,8.71,24.22t23.84,9.46q15.14,0,24.6-9.65t9.46-24a31.72,31.72,0,0,0-9.65-23.27q-9.64-9.64-24.41-9.65-15.13,0-23.84,9.65a33.49,33.49,0,0,0-8.71,23.27" transform="translate(-389.12 -321.26)"/><path d="M658.56,618.71V419.65h84v22.71h.76A53.14,53.14,0,0,1,763,422.11a55.4,55.4,0,0,1,29.14-7.75,60.59,60.59,0,0,1,16.65,1.89L802,490.42a68,68,0,0,0-18.55-2.27q-16.65,0-27.06,9.84A32,32,0,0,0,746,522.21v96.5Z" transform="translate(-389.12 -321.26)"/><path d="M925.73,493.07v-.76q0-17.78-22.7-17.78-21.57,0-42,17L817.5,448.41q17.79-17,43-26.68a143.24,143.24,0,0,1,51.66-9.65q27.24,0,46.55,7.76t29.7,22.33a96.57,96.57,0,0,1,14.95,32q4.55,17.4,4.54,39.73V618.71H928.76v-15.9H928q-6.81,10.61-20.62,15.9a78.19,78.19,0,0,1-28.19,5.3q-27.26,0-48.25-15.71t-21-48.25q0-19.66,10.22-33.68t28.19-20.81a178.86,178.86,0,0,1,36.71-9.65,272.47,272.47,0,0,1,40.68-2.84m5.68,43.14h-4.92q-42.76,0-42.76,19.68a12.76,12.76,0,0,0,6.43,11.54,25.49,25.49,0,0,0,13.62,4q12.5,0,20.06-7.94T931.41,543Z" transform="translate(-389.12 -321.26)"/><path d="M1185,392.4a44.75,44.75,0,0,0-17-3.4q-23.1,0-23.09,28v2.65h42v62.44h-42V618.71h-87V482.09h-34.06V419.65h34.06v-4.54q0-93.84,93.09-93.85,25.36,0,39.74,5.68Z" transform="translate(-389.12 -321.26)"/><path d="M1423.36,518.42q0,49.59-33.3,78.72t-80.6,29.14q-47.31,0-80.23-29.14t-32.92-78.72q0-49.18,32.92-77.76t80.23-28.58q47.3,0,80.6,28.58t33.3,77.76m-90.44-23.08a31.24,31.24,0,0,0-23.46-9.84q-14,0-23.09,9.84a33,33,0,0,0-9.08,23.08,33.48,33.48,0,0,0,9.27,23.84q9.27,9.86,23.27,9.84a30.63,30.63,0,0,0,23.28-9.84,33.48,33.48,0,0,0,9.27-23.84,32.27,32.27,0,0,0-9.46-23.08" transform="translate(-389.12 -321.26)"/><path d="M1449.09,576q0-20.06,15-34.63a49.44,49.44,0,0,1,35.76-14.57q20.06,0,34.63,14.57T1549,576a46.5,46.5,0,0,1-14.57,34.62,48,48,0,0,1-34.63,14.19A50.12,50.12,0,0,1,1464,610.57a45.91,45.91,0,0,1-15-34.62" transform="translate(-389.12 -321.26)"/></svg>