<?xml version="1.0" encoding="utf-8"?>
<!-- Generator: Adobe Illustrator 22.1.0, SVG Export Plug-In . SVG Version: 6.00 Build 0)  -->
<svg version="1.1" id="Шар_1" xmlns="http://www.w3.org/2000/svg" xmlns:xlink="http://www.w3.org/1999/xlink" x="0px" y="0px"
	 viewBox="0 0 1920 1080" style="enable-background:new 0 0 1920 1080;" xml:space="preserve">
<style type="text/css">
	.st0{fill:#FFFFFF;}
</style>
<g>
	<circle class="st0" cx="1778.5" cy="663.1" r="38.4"/>
</g>
<g>
	<path class="st0" d="M401.5,671.3c-24.1,17.7-63.4,29.8-96.7,28.1c-81-4.1-132.1-66.7-132.1-128.5c0-72,61-131,137.9-131
		c32.3,0,62.5,10,88.2,29.7l-40.7,59.4c-11-11.3-26.2-18.9-43.8-18.5c-35.2,0.8-59,27.7-60.3,58.7c-1.2,27.4,19.4,60.1,57.7,61.9
		c15.2,0.7,33.5-5.2,46-18.6L401.5,671.3z"/>
</g>
<g>
	<path class="st0" d="M617.5,527.1c-19.8-7.5-72.2,3.2-77.5,51.6l0.2,112.5h-89.6v-240h88.5l0.4,19.6c7.7-10.8,36.3-30.5,90.6-19.2
		L617.5,527.1z"/>
</g>
<g>
	<path class="st0" d="M903.7,570.6c0-9.1-0.9-18-2.7-26.6c-11.9-57.2-61.5-100.5-121.6-102.9c-20.7,0-40.1,3.9-57.3,10.9
		c-47.6,19.5-79,63.3-77.6,117.6c0,83.9,60.1,130.7,129.5,130.7c77.6,0,115.1-54.6,115.1-54.6l-67.8-37.3
		c-10.5,14.7-26.6,23.9-44.7,24.2c-25.7,0.3-45.1-17.2-51-33.7l174.9,0.3C902.7,590,903.7,580.4,903.7,570.6z M723.1,544
		c2.9-25.6,27-40.2,51-40.2c24,0,47.6,14.3,51,40.2H723.1z"/>
</g>
<g>
	<path class="st0" d="M1172.3,695.2l-1.3-145.4c-1.8-49-36.6-84.9-70-100.1c-40.9-18.6-108.5-16.6-150.1,45.3l44.3,43.1
		c28.7-42.5,87-20.1,87.4,11.7c1-0.5-61.9-17.2-103.7,6.1c-25.6,14.3-42.8,39.1-42.8,69.2c0,46.2,36.4,74.6,78.2,74.8
		c39.9,0.2,59.2-14.9,65.3-18.8v14.1H1172.3z M1052.8,645c-17.6,0-31.9-9.4-31.9-21c0-11.6,14.3-21,31.9-21s31.9,9.4,31.9,21
		C1084.7,635.6,1070.4,645,1052.8,645z"/>
</g>
<g>
	<path class="st0" d="M1241.3,446.7c2.8-2.4,60.3-56.7,60.3-56.7h47.3v56.7h52.6V524h-50.4c-1.1,0-1.9,0.9-1.8,1.9
		c0.9,12.3-4,79.5,4,87.1c18.8,17.9,48.2,5.9,48.2,5.9v75.2c-19.7,6.5-39.9,7.5-75.8,7.3c-46.4-1.8-84.5-36.4-84.5-82.9v-94.9h-33.2
		v-77.3L1241.3,446.7z"/>
</g>
<g>
	<path class="st0" d="M1706.3,570.6c0-9.1-0.9-18-2.7-26.6c-11.9-57.2-61.5-100.5-121.6-102.9c-20.7,0-40.1,3.9-57.3,10.9
		c-47.6,19.5-79,63.3-77.6,117.6c0,83.9,60.1,130.7,129.5,130.7c77.6,0,115.1-54.6,115.1-54.6l-67.8-37.3
		c-10.5,14.7-26.6,23.9-44.7,24.2c-25.7,0.3-45.1-17.2-51-33.7l174.9,0.3C1705.3,590,1706.3,580.4,1706.3,570.6z M1525.7,544
		c2.9-25.6,27-40.2,51-40.2c24,0,47.6,14.3,51,40.2H1525.7z"/>
</g>
</svg>
