<?xml version="1.0" standalone="no"?>
<!DOCTYPE svg PUBLIC "-//W3C//DTD SVG 20010904//EN"
 "http://www.w3.org/TR/2001/REC-SVG-20010904/DTD/svg10.dtd">
<svg version="1.0" xmlns="http://www.w3.org/2000/svg"
 width="1160.000000pt" height="1160.000000pt" viewBox="0 0 1160.000000 1160.000000"
 preserveAspectRatio="xMidYMid meet">
<metadata>
Created by potrace 1.11, written by Peter Selinger 2001-2013
</metadata>
<g transform="translate(0.000000,1160.000000) scale(0.100000,-0.100000)"
fill="#000000" stroke="none">
<path d="M7460 7733 c-55 -5 -188 -33 -239 -49 -212 -71 -355 -197 -443 -393
-56 -122 -88 -279 -89 -430 0 -57 -5 -93 -12 -99 -7 -5 -83 -8 -169 -7 -102 0
-158 -3 -159 -10 -1 -5 -2 -146 -3 -312 -1 -264 1 -303 14 -304 8 0 85 -1 171
-1 l157 0 0 -636 c0 -351 1 -658 1 -683 l1 -46 433 1 432 1 3 681 2 682 198 0
c108 0 203 0 210 1 10 1 12 67 10 314 l-3 312 -205 0 -205 0 -3 43 c-4 52 22
144 51 184 51 69 186 96 297 58 33 -11 50 -13 51 -6 0 6 2 18 3 26 2 8 6 58
10 110 7 100 14 178 21 245 6 52 18 202 19 239 1 25 -4 31 -37 42 -20 7 -56
16 -79 19 -24 4 -46 9 -51 12 -10 6 -332 11 -387 6z"/>
<path d="M5050 6820 c-25 -4 -63 -11 -85 -14 -118 -19 -293 -81 -415 -148
-109 -59 -260 -170 -260 -191 0 -5 96 -104 214 -221 l214 -212 84 56 c214 144
496 151 548 14 14 -36 20 -73 12 -78 -4 -2 -71 -7 -149 -10 -78 -4 -150 -9
-161 -11 -10 -2 -43 -6 -73 -10 -122 -14 -334 -73 -436 -121 -215 -101 -334
-287 -333 -522 0 -277 100 -446 334 -561 121 -60 224 -81 376 -77 193 5 324
52 425 153 l55 54 -1 -63 c-1 -35 -1 -70 0 -79 1 -14 45 -15 397 -16 l395 0
-4 621 c-2 341 -6 637 -9 656 -26 161 -55 258 -115 377 -112 224 -306 352
-608 399 -62 10 -354 13 -405 4z m371 -1295 c-4 -109 -31 -171 -101 -232 -98
-87 -303 -64 -356 39 -20 39 -14 110 13 146 17 23 98 72 133 81 62 15 161 26
231 26 l83 0 -3 -60z"/>
<path d="M9040 6823 c-161 -24 -269 -56 -400 -121 -314 -155 -504 -412 -556
-752 -14 -97 -12 -303 5 -402 41 -243 163 -451 358 -608 106 -85 278 -176 393
-206 60 -15 155 -33 210 -39 74 -8 292 -9 318 -1 9 3 38 8 64 11 25 2 58 9 72
15 14 5 26 8 26 5 0 -2 37 9 83 24 331 112 581 353 680 656 9 28 19 65 22 84
3 19 8 37 10 40 2 4 6 35 10 71 18 187 10 325 -31 482 -84 329 -368 596 -746
703 -58 16 -70 19 -143 31 -45 7 -336 13 -375 7z m320 -769 c234 -127 225
-478 -15 -594 -69 -33 -198 -35 -266 -4 -146 68 -223 235 -182 395 21 84 87
170 158 207 88 46 217 44 305 -4z"/>
<path d="M798 6804 c-2 -1 -23 -5 -48 -9 -71 -10 -149 -35 -228 -72 -256 -121
-460 -429 -510 -773 -9 -59 -9 -312 0 -375 47 -335 234 -615 488 -732 125 -57
255 -81 426 -78 190 4 364 63 474 162 26 24 51 43 54 43 6 0 0 -139 -8 -176
-14 -68 -74 -148 -145 -193 -121 -78 -277 -103 -460 -74 -147 23 -266 71 -393
156 l-66 44 -103 -156 c-56 -86 -142 -216 -191 -289 l-88 -134 23 -18 c25 -21
234 -129 287 -148 85 -32 238 -75 305 -87 174 -31 255 -39 425 -39 181 -1 287
9 422 38 499 108 770 391 832 867 18 142 21 1985 3 1991 -7 2 -192 4 -412 4
l-400 -1 -1 -93 c-1 -51 -4 -96 -8 -99 -3 -3 -16 7 -28 22 -78 100 -221 180
-373 211 -30 6 -272 13 -277 8z m483 -741 c252 -112 259 -478 11 -599 -50 -25
-69 -28 -152 -29 -79 0 -104 4 -145 23 -237 109 -243 489 -9 602 84 41 206 42
295 3z"/>
<path d="M3922 6798 c-134 -21 -284 -118 -353 -228 -16 -25 -29 -43 -29 -40
-1 3 -2 54 -3 115 l-2 110 -410 1 c-225 0 -415 -1 -420 -3 -7 -2 -10 -337 -9
-991 1 -543 2 -990 3 -993 0 -3 197 -6 436 -6 l435 0 1 501 c0 276 3 513 5
528 13 77 72 163 147 213 89 59 257 80 375 46 23 -7 32 -6 33 2 1 7 3 21 4 32
1 11 6 56 9 100 4 44 9 98 11 120 2 22 7 72 10 110 3 39 8 88 10 110 2 22 7
69 10 105 3 36 8 86 11 111 5 44 4 47 -23 54 -41 11 -190 13 -251 3z"/>
<path d="M11047 5683 c-2 -1 -17 -5 -35 -8 -214 -37 -392 -229 -408 -438 -12
-154 33 -280 137 -384 105 -105 232 -154 384 -148 143 5 237 47 338 148 296
300 84 815 -341 830 -40 1 -74 1 -75 0z"/>
</g>
</svg>
